<?xml version="1.0" encoding="UTF-8"?>
<svg width="50px" height="47px" viewBox="0 0 50 47" version="1.1" xmlns="http://www.w3.org/2000/svg" xmlns:xlink="http://www.w3.org/1999/xlink">
    <title>Subscribe</title>
    <g id="Page-1" stroke="none" stroke-width="1" fill="none" fill-rule="evenodd" opacity="0.697428385">
        <path d="M25.9933382,46.9987915 L25.1947386,46.9987915 C23.013021,46.7111071 21.2802267,45.056849 20.9279351,42.9253744 L18.9200275,29.2055685 C18.7297619,27.8950755 19.1200598,26.5673375 19.9924327,25.5573983 L26.2215095,18.3505834 C27.0343097,17.4049736 28.4747061,17.2847276 29.438725,18.0820065 C30.4027438,18.8792854 30.5253307,20.2921758 29.7125305,21.2377857 L23.4834537,28.4446005 L25.445727,42.2091692 C25.487618,42.4004143 25.6571092,42.5389598 25.8564354,42.5448904 C26.1360054,42.5965959 26.4136366,42.4463452 26.5181322,42.1867878 L45.3422653,5.23507568 C45.4444889,5.04384023 45.4141757,4.81035045 45.2663522,4.65034981 C45.1185288,4.49034916 44.8846166,4.4378475 44.6805685,4.51887048 L4.97876044,19.2682213 C4.71090838,19.3494295 4.53273229,19.597792 4.54523495,19.8725195 C4.54079213,20.0886168 4.69440276,20.2769634 4.91030905,20.3201477 L13.2157448,22.2001864 C14.0105429,22.3800988 14.647116,22.9622674 14.8856731,23.7273949 C15.1242302,24.4925223 14.9285288,25.3243676 14.3722876,25.9095826 C13.8160465,26.4947977 12.983772,26.7444743 12.1889739,26.5645618 L3.74663536,24.6397604 C1.60020228,24.0790761 0.080583129,22.2067367 0.00462586902,20.0291894 C-0.0900554839,17.834425 1.27656175,15.8327024 3.38156127,15.0828972 L43.0833693,0.333546332 C45.0486336,-0.40871092 47.2769696,0.113265391 48.6882645,1.64646438 C50.0995595,3.17966336 50.4021435,5.40722139 49.4493489,7.24940281 L30.6936672,44.2234963 C29.8044191,45.9610447 27.9749171,47.0412686 25.9933382,46.9987915 Z" id="Subscribe" fill="#FA9E57"></path>
    </g>
</svg>