<svg xmlns="http://www.w3.org/2000/svg" width="261" height="260" viewBox="0 0 261 260"><defs><mask id="y931b" width="2" height="2" x="-1" y="-1"><path fill="#fff" d="M28 12h175v175H28z"/><path d="M115.5 187c48.325 0 87.5-39.175 87.5-87.5S163.825 12 115.5 12 28 51.175 28 99.5 67.175 187 115.5 187z"/></mask><filter id="y931a" width="310" height="325" x="-32" y="-48" filterUnits="userSpaceOnUse"><feOffset dx="15" dy="30" in="SourceGraphic" result="FeOffset1054Out"/><feGaussianBlur in="FeOffset1054Out" result="FeGaussianBlur1055Out" stdDeviation="20 20"/></filter></defs><g><g><g><g filter="url(#y931a)"><path fill="none" d="M115.5 187c48.325 0 87.5-39.175 87.5-87.5S163.825 12 115.5 12 28 51.175 28 99.5 67.175 187 115.5 187z" mask="url(&quot;#y931b&quot;)"/><path fill="#e9ecf1" fill-opacity=".5" d="M115.5 187c48.325 0 87.5-39.175 87.5-87.5S163.825 12 115.5 12 28 51.175 28 99.5 67.175 187 115.5 187z"/></g><path fill="#fff" d="M115.5 187c48.325 0 87.5-39.175 87.5-87.5S163.825 12 115.5 12 28 51.175 28 99.5 67.175 187 115.5 187z"/></g><g><g><path fill="#f5030b" d="M117.27 88c-.182 0-.451 0-.532.162-.793 1.216-1.555 2.452-2.415 3.838h3.893c.227 0 .547-.15.66-.323.747-1.147 1.449-2.322 2.293-3.677zM187 79c-4.135 3.176-8.577 5.482-14 5.125-.178-.012-.44.016-.54.133-1.067 1.233-2.109 2.488-3.21 3.8C176.575 90 186.101 84.26 190 76.315zM74.164 82.71c-.497 1.098-.379 2.121.258 2.547.647.433 1.804.145 2.578-.646.063-.047.12-.089.15-.145.602-1.126 1.411-2.193 1.758-3.394.9-3.072-1.112-5.475-4.338-5.014-1.899.27-3.872.724-5.57 1.577-9.759 4.901-16.45 12.711-20.754 22.622C46.617 104 45.68 108 46.1 112.105c.556 5.509 3.545 8.895 8.82 9.823 1.594.275 3.328.291 4.91-.018 4.332-.845 8.601-2.003 12.925-2.91 2.575-.501 5.245-.94 7.817-1.065 4.428-.209 8.335.835 10.914 5 1.582-2.477 3.906-3.257 6.588-3.19 3.406.087 6.551 1.082 9.448 2.872.216.134.478.256.66.383l.122-.214c-3.189-3.124-6.565-6.008-10.893-7.475-4.411-1.483-8.873-1.311-13.307-.473-5.104 1.028-10.212 2.366-15.318 3.548-2.893.67-5.786 1.473-8.786 1.058-5-.688-7.437-3.243-7.586-8.027-.085-2.687.487-5.248 1.366-7.746C56.833 95 62.132 87.855 68.92 81.775c1.234-1.105 2.749-1.926 4.217-2.775.784-.381 1.73-.627 2.627-.71 1.421-.13 1.947.653 1.532 2.13zm72.36.572c-1.032 3.788-3.144 6.861-6.3 9.208-.29.215-.594.51-.926.51-.546.14-1.246.281-1.643 0-.336-.183-.539-1-.438-1.428.216-.981.572-1.96 1.035-2.855 1.748-3.341 4.135-6.103 7.273-8.204.475-.29.898-.513 1.348-.8.127.04.203.08.304.119zm-24.642 29.665c1.118-.947 2.055-2.011 3.266-2.685 1.787-.994 2.912-2.262 3.427-4.262a7.182 7.182 0 0 1 2.89-4.178c.535-.382 1.462-.554 2.079-.374.354.103.456 1.095.639 1.706.07.27-.025.588-.07.846-.591 3.844-2.469 7-4.891 9.921-1.428 1.71-3.024 3.237-5.095 4.153-2.605 1.15-4.978-.018-5.616-2.79-.167-.727-.29-1.539-.141-2.284.516-2.44.894-5 1.804-7.325 3.241-8.31 8.53-15.27 14.826-21.524 2.154-2.151 4.637-3.981 7.412-5.353 1.065-.527 2.168-.914 3.537-.462-.357.251-.589.419-.824.58-3.896 2.666-7.004 5.996-8.795 10.434-.473 1.173-.852 2.363-.52 3.65.397 1.54 1.578 2.263 3.08 1.743.92-.32 1.849-.743 2.625-1.328 2.432-1.815 4.196-4.23 5.364-6.985.774-1.824 1.28-3.804 1.596-5.764.293-1.82.235-1.956 2.097-1.76.196.02.428.094.583.094 2.595.565 4.845 1.841 7.056 3.259 1.857 1.197 3.713 2.396 5.592 3.557.197.184.78.184.926.086 1.107-1.105 2.15-2.274 3.271-3.51-2.218-1.283-4.391-2.458-6.496-3.745-4.229-2.587-8.616-3.341-13.313-1.402-.242.1-.665.056-.868-.098-1.323-.991-2.768-1.22-4.323-.958-3.514.596-6.656 2.147-9.5 4.212-9.122 6.599-15.697 15.253-19.869 25.705-1.245 3.12-1.978 6.343-1.393 9.757.762 4.193 3.762 6.721 7.854 6.137a9.321 9.321 0 0 0 3.61-1.206c5.524-3.246 9.104-8.118 11.298-14.061.63-1.803.945-3.733.45-5.64-.45-1.619-1.578-2.509-3.217-2.212A10.901 10.901 0 0 0 129 100c-3.515 2-5.314 5.315-6.453 9-.39 1.307-.606 2.635-.902 3.938zm-45.69-23.3c1.003-.243 1.611.103 1.808 1.118.285 1.458-.2 2.794-.766 4.101-.682 1.572-1.234 1.716-2.668.707-.759-.573-1.316-1.195-1.308-2.623zm-.305 8.217c-1.247 1.815-2.363 3.584-3.634 5.232-.714.904-1.651 1.69-2.554 2.449-.59.455-1.358.838-2.093.35-.751-.497-.847-1.379-.606-2.142.468-1.499 1-3.007 1.673-4.407.803-1.604 1.834-3.093 2.859-4.786zm20.611 4.737c1.93-4.361 4.842-8.065 7.96-11.601.542-.568 1.288-.887 1.991-1.217.224-.105.71.023.874.217.136.159.074.626-.063.863-2.353 4.041-4.666 8.137-7.144 12.073-.745 1.192-1.896 2.167-2.988 3.064-.673.597-1.44.148-1.468-.928zM103.756 88c-1.033.588-2.098 1.224-2.894 2.069C98.764 92.295 96.77 94.623 94.8 97c-2.181 2.565-4.191 5.314-6.473 7.817-.955 1.048-2.327 1.803-3.672 2.38-1.257.547-2.415-.328-2.456-1.716-.027-.933.088-1.925.392-2.804C83.611 99.732 85 97 87 94.542c1.153-1.428 2.47-2.744 3.838-3.972.537-.482 1.4-.672 2.162-.805.22-.041.695.494.827.85.173.516-.196.693-.707.777-1.12.189-1.817 1.007-2.314 1.98-.521 1.02-.448 1.895.194 2.35.587.46 1.456.278 2.255-.543a7.26 7.26 0 0 0 2.107-4.376c.21-1.803-1.07-3.288-2.905-3.425-1.563-.117-2.965.39-4.158 1.31-1.457 1.123-2.781 2.418-4.194 3.602a108.93 108.93 0 0 1-4.16 3.327c-.386.293-.945.383-1.565.642.133-.422.202-.599.244-.781.376-1.689.987-3.364 1.104-5.071.136-1.99-1.337-3.3-3.302-2.972-1.354.225-2.768.756-3.903 1.565-5.045 3.362-8.58 8-10.61 13.74-.598 1.691-.913 3.446-.573 5.26.391 2.157 2.047 3.299 4.125 2.583 1.28-.44 2.535-1.154 3.603-1.98 3.304-2.53 5.71-5.846 7.658-9.472.665-1.239 1.637-1.374 2.776-1.543-.689 1.502-1.366 2.928-1.999 4.412-.803 1.795-1.044 3.693-.503 5.657.51 2.08 1.936 3.184 4.064 3.125 2.458-.067 4.37-1.355 6.152-2.867 1.073-.915 2.082-1.915 3.254-2.978-.156.695-.308 1.199-.374 1.714-.096.554-.096 1.12-.096 1.677.11 1.53 1.166 2.617 2.678 2.404 1.095-.154 2.19-.666 3.162-1.23.885-.502 1.606-1.31 2.48-2.05 0 .34.004.548 0 .838-.031 1.934 1.192 2.9 3.024 2.3a7.104 7.104 0 0 0 2.098-1.074c3.003-2.128 5.284-4.949 7.432-7.888.552-.756 1.076-1.532 1.64-2.336-1.017-.292-1.626-.043-2.215.708-1.126 1.533-2.36 3-3.629 4.343-.57.657-1.316 1.09-2.02 1.572-.17.085-.572.085-.717-.015-.147-.126-.203-.502-.131-.71.198-.462.406-.898.652-1.325 2.877-5.001 5.761-9.998 8.64-14.997.14-.242.246-.503.433-.868-1.255 0-2.37-.07-3.527 0-.504 0-1 .275-1.745.466zm41.592 14.773c.47-.641 1.14-1.198 1.833-1.6 1.251-.725 2.3-.173 2.245 1.313-.042 1.093-.329 2.196-.647 3.252-.26.863-.728 1.663-1.091 2.462zm-3.922 14.041c-.33.261-.714.484-1.108.628-1.068.387-1.864-.125-1.901-1.255a6.042 6.042 0 0 1 .213-1.845c.851-2.948 2.5-5.47 4.195-7.812l3.877 3.415zm22.698-2.451c2.05-4.618 4.745-8.8 8.531-12.202a3.985 3.985 0 0 1 1.614-.874c.731-.188 1.176.419.79 1.054-2.745 4.525-5.5 9.046-8.311 13.532-.385.613-1.059 1.127-1.675 1.5-.27.186-.805.234-1.073.087-.277-.14-.365-.615-.517-.913zm-14.496-6.977c.813-1.887 1.54-3.795 1.372-5.912-.227-1.823-1.23-2.711-3.066-2.645-1.694.06-3.129.86-4.41 1.84-4.848 3.715-8.224 8.514-10.089 14.331-.435 1.252-.558 2.646-.544 4 .027 2.435 1.895 3.766 4.179 2.9 1.358-.516 2.652-1.335 3.803-2.237 2.823-2.212 4.886-5.11 6.568-8.221.787-1.442 1.857-1.59 3.31-1.626-.395 1.235-.854 2.364-1.108 3.537-.403 1.854-.919 3.737-.934 5.647-.022 2.713 2.291 4 4.678 2.562 1.381-.847 2.523-2.089 3.746-3.183.193-.172.243-.503.36-.76l.344.3c0 .528-.05 1.081.009 1.58.228 2.03 1.772 3.11 3.635 2.501a7.92 7.92 0 0 0 1.998-1.071c.954-.692 1.833-1.489 2.801-2.29-.015.203-.03.361-.037.505-.048 1.013-.032 2.056.92 2.665.954.612 2 .42 2.91-.15 1.197-.747 2.436-1.48 3.471-2.424 2.701-2.463 4.783-5.444 6.731-8.516.081-.127.11-.288.172-.46-.914-.259-1.5-.075-2.018.741-.818 1.324-1.722 2.602-2.742 3.76-.885 1.004-1.968 1.838-3 2.704-.18.151-.539.089-.815.126-.028-.277-.151-.59-.065-.823.193-.616.506-1.219.83-1.767 2.804-5 5.624-9.944 8.436-14.905.119-.21.204-.439.356-.77-1.117 0-2.102.027-3.084-.006-.918-.03-1.836-.126-2.085 1.12-2.03-1.97-3.483-2.113-5.809-.53a23.76 23.76 0 0 0-2.855 2.281c-3.163 2.96-5.443 6.602-7.806 10.184-1.068 1.626-2.268 3.154-3.487 4.626-.43.573-1.13 1.318-1.818.742-.426-.357-.38-1.281-.538-1.952-.013-.058.053-.13.053-.192.853-2.517 1.703-5.039 2.595-7.545.11-.312.405-.604.686-.802 5.877-4.149 10.79-9.251 15.295-14.846.821-1.013 1.572-2.081 2.424-3.213-1.058-.192-1.666.07-2.25.808-3.851 5-8.167 9.617-13.055 13.642-.355.292-.762.52-1.144.778.086-.627.304-1.098.547-1.556 2.666-5.015 5.657-9.864 8.996-14.425 2.472-3.439 5.245-6.538 8.552-9.157.517-.41 1.27-.522 1.914-.772-.072.694-.037 1.421-.243 2.073-.259.817-.715 1.571-1.087 2.353.057.064.114.136.17.204.515-.232 1.24-.324 1.505-.722.806-1.214 1.338-2.583 1.258-4.09-.07-1.328-.8-1.987-2.081-1.758-.953.17-2 .43-2.752 1-2.396 1.79-4.833 3.578-6.97 5.658-6.992 6.772-12.04 14.976-16.305 23.674-.635 1.293-1.268 1.647-2.912 1.56z"/></g></g></g></g></svg>